<svg width="12" height="12" viewBox="0 0 12 12" fill="none" xmlns="http://www.w3.org/2000/svg">
<g id="ArrowUpOutlined">
<path id="Vector" d="M5.55133 1.23203L10.6741 5.67712C10.7205 5.7173 10.7576 5.76698 10.7831 5.82278C10.8086 5.87859 10.8218 5.93922 10.8218 6.00056C10.8218 6.06191 10.8086 6.12253 10.7831 6.17834C10.7576 6.23414 10.7205 6.28382 10.6741 6.324L5.55134 10.7677C5.53589 10.7812 5.51692 10.7899 5.49667 10.7928C5.47642 10.7958 5.45575 10.7928 5.43712 10.7844C5.41849 10.7759 5.40269 10.7623 5.3916 10.7451C5.3805 10.7279 5.37459 10.7079 5.37455 10.6874L5.37455 9.60257C5.37455 9.54096 5.40134 9.48203 5.44821 9.44052L8.82723 6.50882L1.28571 6.50882C1.22678 6.50882 1.17857 6.46061 1.17857 6.40168L1.17857 5.59811C1.17857 5.53918 1.22678 5.49096 1.28571 5.49096L8.82723 5.49096L5.44821 2.55927C5.40133 2.51909 5.37455 2.46016 5.37455 2.39721L5.37455 1.31239C5.37455 1.22132 5.48169 1.17177 5.55133 1.23203Z" fill="white"/>
</g>
</svg>
