<svg width="12" height="12" viewBox="0 0 12 12" fill="none" xmlns="http://www.w3.org/2000/svg">
<g id="ArrowUpOutlined">
<path id="Vector" d="M6.44867 1.23203L1.3259 5.67712C1.27954 5.7173 1.24237 5.76698 1.21689 5.82278C1.19141 5.87859 1.17822 5.93922 1.17822 6.00056C1.17822 6.06191 1.19141 6.12253 1.21689 6.17834C1.24237 6.23414 1.27954 6.28382 1.3259 6.324L6.44866 10.7677C6.46411 10.7812 6.48308 10.7899 6.50333 10.7928C6.52358 10.7958 6.54425 10.7928 6.56288 10.7844C6.58151 10.7759 6.59731 10.7623 6.6084 10.7451C6.6195 10.7279 6.62541 10.7079 6.62545 10.6874L6.62545 9.60257C6.62545 9.54096 6.59866 9.48203 6.55179 9.44052L3.17277 6.50882L10.7143 6.50882C10.7732 6.50882 10.8214 6.46061 10.8214 6.40168L10.8214 5.59811C10.8214 5.53918 10.7732 5.49096 10.7143 5.49096L3.17277 5.49096L6.55179 2.55927C6.59867 2.51909 6.62545 2.46016 6.62545 2.39721L6.62545 1.31239C6.62545 1.22132 6.51831 1.17177 6.44867 1.23203Z" fill="white"/>
</g>
</svg>
