<svg width="12" height="12" viewBox="0 0 12 12" fill="none" xmlns="http://www.w3.org/2000/svg">
<g id="ArrowUpOutlined">
<path id="Vector" d="M10.7678 5.55134L6.32275 10.6741C6.28257 10.7205 6.2329 10.7576 6.17709 10.7831C6.12129 10.8086 6.06066 10.8218 5.99932 10.8218C5.93797 10.8218 5.87734 10.8086 5.82154 10.7831C5.76574 10.7576 5.71606 10.7205 5.67588 10.6741L1.23213 5.55134C1.2187 5.53589 1.20999 5.51692 1.20705 5.49667C1.2041 5.47642 1.20703 5.45575 1.2155 5.43712C1.22397 5.41849 1.23761 5.40269 1.25481 5.3916C1.272 5.3805 1.29202 5.37459 1.31249 5.37455H2.39731C2.45892 5.37455 2.51784 5.40134 2.55936 5.44821L5.49106 8.82723V1.28571C5.49106 1.22678 5.53927 1.17857 5.5982 1.17857H6.40177C6.4607 1.17857 6.50891 1.22678 6.50891 1.28571V8.82723L9.44061 5.44821C9.48079 5.40134 9.53972 5.37455 9.60267 5.37455H10.6875C10.7786 5.37455 10.8281 5.48169 10.7678 5.55134Z" fill="white"/>
</g>
</svg>
