<svg width="12" height="12" viewBox="0 0 12 12" fill="none" xmlns="http://www.w3.org/2000/svg">
<g id="ArrowUpOutlined">
<path id="Vector" d="M10.7678 6.44866L6.32275 1.3259C6.28257 1.27954 6.2329 1.24237 6.17709 1.21689C6.12129 1.19141 6.06066 1.17822 5.99932 1.17822C5.93797 1.17822 5.87734 1.19141 5.82154 1.21689C5.76574 1.24237 5.71606 1.27954 5.67588 1.3259L1.23213 6.44866C1.2187 6.46411 1.20999 6.48308 1.20705 6.50333C1.2041 6.52358 1.20703 6.54425 1.2155 6.56288C1.22397 6.58151 1.23761 6.59731 1.25481 6.6084C1.272 6.6195 1.29202 6.62541 1.31249 6.62545H2.39731C2.45892 6.62545 2.51784 6.59866 2.55936 6.55179L5.49106 3.17277V10.7143C5.49106 10.7732 5.53927 10.8214 5.5982 10.8214H6.40177C6.4607 10.8214 6.50891 10.7732 6.50891 10.7143V3.17277L9.44061 6.55179C9.48079 6.59866 9.53972 6.62545 9.60267 6.62545H10.6875C10.7786 6.62545 10.8281 6.51831 10.7678 6.44866Z" fill="white"/>
</g>
</svg>
