<svg width="20" height="20" viewBox="0 0 20 20" fill="none" xmlns="http://www.w3.org/2000/svg">
<path d="M19.45 0.565078C18.865 -0.0199215 17.92 -0.0199215 17.335 0.565078L10 7.88508L2.66502 0.550078C2.08002 -0.0349219 1.13502 -0.0349219 0.550017 0.550078C-0.0349829 1.13508 -0.0349829 2.08008 0.550017 2.66508L7.88502 10.0001L0.550017 17.3351C-0.0349829 17.9201 -0.0349829 18.8651 0.550017 19.4501C1.13502 20.0351 2.08002 20.0351 2.66502 19.4501L10 12.1151L17.335 19.4501C17.92 20.0351 18.865 20.0351 19.45 19.4501C20.035 18.8651 20.035 17.9201 19.45 17.3351L12.115 10.0001L19.45 2.66508C20.02 2.09508 20.02 1.13508 19.45 0.565078Z" fill="white"/>
</svg>
