<svg width="47" height="388" viewBox="0 0 47 388" fill="none" xmlns="http://www.w3.org/2000/svg">
<path d="M5.50003 387.486L5.50003 357.986L11.4 357.986L11.4 387.486L5.50003 387.486ZM29.1 387.486L29.1 357.986L35 357.986L35 387.486L29.1 387.486ZM11.4 387.486L11.4 381.586L29.1 381.586L29.1 387.486L11.4 387.486ZM17.3 375.686L17.3 357.986L23.2 357.986L23.2 375.686L17.3 375.686ZM23.2 363.886L23.2 357.986L29.1 357.986L29.1 363.886L23.2 363.886ZM37.95 384.536L37.95 352.086L40.9 352.086L40.9 384.536L37.95 384.536ZM20.25 355.036L20.25 352.086L37.95 352.086L37.95 355.036L20.25 355.036ZM8.45003 355.036L8.45003 352.086L14.35 352.086L14.35 355.036L8.45003 355.036ZM5.50003 346.175L5.50003 340.275L35 340.275L35 346.175L5.50003 346.175ZM5.50003 340.275L5.50003 316.675L11.4 316.675L11.4 340.275L5.50003 340.275ZM11.4 322.575L11.4 316.675L35 316.675L35 322.575L11.4 322.575ZM17.3 340.275L17.3 322.575L23.2 322.575L23.2 340.275L17.3 340.275ZM37.95 343.225L37.95 334.375L40.9 334.375L40.9 343.225L37.95 343.225ZM26.15 337.325L26.15 334.375L37.95 334.375L37.95 337.325L26.15 337.325ZM26.15 334.375L26.15 325.525L29.1 325.525L29.1 334.375L26.15 334.375ZM37.95 319.625L37.95 310.775L40.9 310.775L40.9 319.625L37.95 319.625ZM8.45003 313.725L8.45003 310.775L37.95 310.775L37.95 313.725L8.45003 313.725ZM5.50003 304.863L5.50003 298.963L35 298.963L35 304.863L5.50003 304.863ZM5.50003 293.063L5.50003 287.163L35 287.163L35 293.063L5.50003 293.063ZM5.50003 281.263L5.50003 275.363L35 275.363L35 281.263L5.50003 281.263ZM5.50003 298.963L5.50003 293.063L11.4 293.063L11.4 298.963L5.50003 298.963ZM5.50003 287.163L5.50003 281.263L11.4 281.263L11.4 287.163L5.50003 287.163ZM37.95 301.913L37.95 296.013L40.9 296.013L40.9 301.913L37.95 301.913ZM37.95 290.113L37.95 284.213L40.9 284.213L40.9 290.113L37.95 290.113ZM37.95 278.313L37.95 269.463L40.9 269.463L40.9 278.313L37.95 278.313ZM8.45002 272.413L8.45002 269.463L37.95 269.463L37.95 272.413L8.45002 272.413ZM5.50003 263.552L5.50002 234.052L11.4 234.052L11.4 263.552L5.50003 263.552ZM17.3 263.552L17.3 234.052L23.2 234.052L23.2 263.552L17.3 263.552ZM29.1 263.552L29.1 234.052L35 234.052L35 263.552L29.1 263.552ZM11.4 263.552L11.4 257.652L17.3 257.652L17.3 263.552L11.4 263.552ZM23.2 263.552L23.2 257.652L29.1 257.652L29.1 263.552L23.2 263.552ZM37.95 260.602L37.95 228.152L40.9 228.152L40.9 260.602L37.95 260.602ZM32.05 231.102L32.05 228.152L37.95 228.152L37.95 231.102L32.05 231.102ZM20.25 231.102L20.25 228.152L26.15 228.152L26.15 231.102L20.25 231.102ZM8.45002 231.102L8.45002 228.152L14.35 228.152L14.35 231.102L8.45002 231.102ZM5.50002 204.552L5.50002 175.052L11.4 175.052L11.4 204.552L5.50002 204.552ZM29.1 204.552L29.1 175.052L35 175.052L35 204.552L29.1 204.552ZM11.4 204.552L11.4 198.652L29.1 198.652L29.1 204.552L11.4 204.552ZM11.4 180.952L11.4 175.052L29.1 175.052L29.1 180.952L11.4 180.952ZM37.95 201.602L37.95 169.152L40.9 169.152L40.9 201.602L37.95 201.602ZM8.45002 172.102L8.45002 169.152L37.95 169.152L37.95 172.102L8.45002 172.102ZM14.35 195.702L14.35 192.752L26.15 192.752L26.15 195.702L14.35 195.702ZM14.35 192.752L14.35 183.902L17.3 183.902L17.3 192.752L14.35 192.752ZM5.50002 163.24L5.50002 157.34L29.1 157.34L29.1 163.24L5.50002 163.24ZM29.1 157.34L29.1 139.64L35 139.64L35 157.34L29.1 157.34ZM5.50002 139.64L5.50002 133.74L29.1 133.74L29.1 139.64L5.50002 139.64ZM37.95 154.39L37.95 133.74L40.9 133.74L40.9 154.39L37.95 154.39ZM32.05 136.69L32.05 133.74L37.95 133.74L37.95 136.69L32.05 136.69ZM32.05 133.74L32.05 127.84L35 127.84L35 133.74L32.05 133.74ZM8.45002 130.79L8.45002 127.84L32.05 127.84L32.05 130.79L8.45002 130.79ZM8.45002 154.39L8.45002 151.44L26.15 151.44L26.15 154.39L8.45002 154.39ZM5.50002 121.929L5.50002 92.4287L11.4 92.4287L11.4 121.929L5.50002 121.929ZM17.3 121.929L17.3 92.4287L23.2 92.4287L23.2 121.929L17.3 121.929ZM29.1 121.929L29.1 92.4287L35 92.4287L35 121.929L29.1 121.929ZM11.4 121.929L11.4 116.029L17.3 116.029L17.3 121.929L11.4 121.929ZM23.2 121.929L23.2 116.029L29.1 116.029L29.1 121.929L23.2 121.929ZM37.95 118.979L37.95 86.5287L40.9 86.5287L40.9 118.979L37.95 118.979ZM32.05 89.4787L32.05 86.5287L37.95 86.5287L37.95 89.4787L32.05 89.4787ZM20.25 89.4787L20.25 86.5287L26.15 86.5287L26.15 89.4787L20.25 89.4787ZM8.45002 89.4787L8.45002 86.5287L14.35 86.5287L14.35 89.4787L8.45002 89.4787ZM5.50002 80.6172L5.50002 74.7172L35 74.7172L35 80.6172L5.50002 80.6172ZM5.50002 57.0172L5.50002 51.1172L23.2 51.1172L23.2 57.0172L5.50002 57.0172ZM29.1 57.0172L29.1 51.1172L35 51.1172L35 57.0172L29.1 57.0172ZM17.3 74.7172L17.3 57.0172L23.2 57.0172L23.2 74.7172L17.3 74.7172ZM5.50002 74.7172L5.50002 57.0172L11.4 57.0172L11.4 74.7172L5.50002 74.7172ZM23.2 62.9172L23.2 57.0172L35 57.0172L35 62.9172L23.2 62.9172ZM37.95 77.6672L37.95 68.8172L40.9 68.8172L40.9 77.6672L37.95 77.6672ZM26.15 71.7672L26.15 68.8172L37.95 68.8172L37.95 71.7672L26.15 71.7672ZM26.15 68.8172L26.15 65.8672L29.1 65.8672L29.1 68.8172L26.15 68.8172ZM8.45001 48.1672L8.45001 45.2172L26.15 45.2172L26.15 48.1672L8.45001 48.1672ZM32.05 48.1672L32.05 45.2172L40.9 45.2172L40.9 48.1672L32.05 48.1672ZM37.95 59.9672L37.95 48.1672L40.9 48.1672L40.9 59.9672L37.95 59.9672Z" fill="white"/>
<path d="M5.5 18.2431L13.824 17.9346C18.9166 17.7458 23.0007 13.6596 23.1869 8.56691L23.5 -0.000161988L23.8131 8.5669C23.9993 13.6596 28.0834 17.7458 33.176 17.9346L41.5 18.2431L33.176 18.5516C28.0834 18.7403 23.9993 22.8266 23.8131 27.9193L23.5 36.4863L23.1869 27.9193C23.0007 22.8266 18.9166 18.7403 13.824 18.5516L5.5 18.2431Z" fill="white"/>
<path d="M7.91153 9.24308L15.2746 13.1379C19.7793 15.5207 25.3594 14.024 28.0669 9.70671L32.6216 2.44397L28.6092 10.0198C26.2241 14.5233 27.718 20.1042 32.0339 22.8139L39.0884 27.2431L31.7254 23.3483C27.2207 20.9654 21.6406 22.4621 18.9331 26.7795L14.3784 34.0422L18.3907 26.4663C20.7759 21.9629 19.282 16.382 14.9661 13.6723L7.91153 9.24308Z" fill="white"/>
<path d="M14.5 2.65463L18.9292 9.70916C21.6389 14.0251 27.2198 15.519 31.7232 13.1338L39.2991 9.12146L32.0364 13.6762C27.7191 16.3837 26.2223 21.9638 28.6052 26.4685L32.5 33.8315L28.0708 26.777C25.3611 22.4611 19.7802 20.9672 15.2767 23.3523L7.70089 27.3647L14.9636 22.81C19.2809 20.1025 20.7777 14.5224 18.3948 10.0177L14.5 2.65463Z" fill="white"/>
</svg>
