<svg width="48" height="337" viewBox="0 0 48 337" fill="none" xmlns="http://www.w3.org/2000/svg">
<path d="M6 336.5L6 330.6L35.5 330.6L35.5 336.5L6 336.5ZM6 312.9L6 307L23.7 307L23.7 312.9L6 312.9ZM29.6 312.9L29.6 307L35.5 307L35.5 312.9L29.6 312.9ZM17.8 330.6L17.8 312.9L23.7 312.9L23.7 330.6L17.8 330.6ZM6 330.6L6 312.9L11.9 312.9L11.9 330.6L6 330.6ZM23.7 318.8L23.7 312.9L35.5 312.9L35.5 318.8L23.7 318.8ZM38.45 333.55L38.45 324.7L41.4 324.7L41.4 333.55L38.45 333.55ZM26.65 327.65L26.65 324.7L38.45 324.7L38.45 327.65L26.65 327.65ZM26.65 324.7L26.65 321.75L29.6 321.75L29.6 324.7L26.65 324.7ZM8.95 304.05L8.95 301.1L26.65 301.1L26.65 304.05L8.95 304.05ZM32.55 304.05L32.55 301.1L41.4 301.1L41.4 304.05L32.55 304.05ZM38.45 315.85L38.45 304.05L41.4 304.05L41.4 315.85L38.45 315.85ZM6 295.188L6 265.688L11.9 265.688L11.9 295.188L6 295.188ZM17.8 295.188L17.8 265.688L23.7 265.688L23.7 295.188L17.8 295.188ZM29.6 295.188L29.6 265.688L35.5 265.688L35.5 295.188L29.6 295.188ZM11.9 295.188L11.9 289.288L17.8 289.288L17.8 295.188L11.9 295.188ZM23.7 295.188L23.7 289.288L29.6 289.288L29.6 295.188L23.7 295.188ZM38.45 292.238L38.45 259.788L41.4 259.788L41.4 292.238L38.45 292.238ZM32.55 262.738L32.55 259.788L38.45 259.788L38.45 262.738L32.55 262.738ZM20.75 262.738L20.75 259.788L26.65 259.788L26.65 262.738L20.75 262.738ZM8.95 262.738L8.95 259.788L14.85 259.788L14.85 262.738L8.95 262.738ZM6 253.877L6 247.977L35.5 247.977L35.5 253.877L6 253.877ZM6 247.977L6 224.377L11.9 224.377L11.9 247.977L6 247.977ZM29.6 247.977L29.6 224.377L35.5 224.377L35.5 247.977L29.6 247.977ZM38.45 250.927L38.45 218.477L41.4 218.477L41.4 250.927L38.45 250.927ZM32.55 221.427L32.55 218.477L38.45 218.477L38.45 221.427L32.55 221.427ZM8.94999 221.427L8.94999 218.477L17.8 218.477L17.8 221.427L8.94999 221.427ZM14.85 245.027L14.85 221.427L17.8 221.427L17.8 245.027L14.85 245.027ZM17.8 245.027L17.8 242.077L26.65 242.077L26.65 245.027L17.8 245.027ZM5.99999 212.565L5.99999 183.065L11.9 183.065L11.9 212.565L5.99999 212.565ZM29.6 212.565L29.6 183.065L35.5 183.065L35.5 212.565L29.6 212.565ZM11.9 212.565L11.9 206.665L29.6 206.665L29.6 212.565L11.9 212.565ZM11.9 188.965L11.9 183.065L29.6 183.065L29.6 188.965L11.9 188.965ZM38.45 209.615L38.45 177.165L41.4 177.165L41.4 209.615L38.45 209.615ZM8.94999 180.115L8.94999 177.165L38.45 177.165L38.45 180.115L8.94999 180.115ZM14.85 203.715L14.85 200.765L26.65 200.765L26.65 203.715L14.85 203.715ZM14.85 200.765L14.85 191.915L17.8 191.915L17.8 200.765L14.85 200.765ZM5.99999 171.254L5.99999 165.354L35.5 165.354L35.5 171.254L5.99999 171.254ZM5.99999 147.654L5.99999 141.754L23.7 141.754L23.7 147.654L5.99999 147.654ZM29.6 147.654L29.6 141.754L35.5 141.754L35.5 147.654L29.6 147.654ZM17.8 165.354L17.8 147.654L23.7 147.654L23.7 165.354L17.8 165.354ZM5.99999 165.354L5.99999 147.654L11.9 147.654L11.9 165.354L5.99999 165.354ZM23.7 153.554L23.7 147.654L35.5 147.654L35.5 153.554L23.7 153.554ZM38.45 168.304L38.45 159.454L41.4 159.454L41.4 168.304L38.45 168.304ZM26.65 162.404L26.65 159.454L38.45 159.454L38.45 162.404L26.65 162.404ZM26.65 159.454L26.65 156.504L29.6 156.504L29.6 159.454L26.65 159.454ZM8.94999 138.804L8.94999 135.854L26.65 135.854L26.65 138.804L8.94999 138.804ZM32.55 138.804L32.55 135.854L41.4 135.854L41.4 138.804L32.55 138.804ZM38.45 150.604L38.45 138.804L41.4 138.804L41.4 150.604L38.45 150.604ZM5.99999 129.942L5.99999 124.042L35.5 124.042L35.5 129.942L5.99999 129.942ZM5.99999 124.042L5.99999 106.342L11.9 106.342L11.9 124.042L5.99999 124.042ZM11.9 106.342L11.9 100.442L29.6 100.442L29.6 106.342L11.9 106.342ZM29.6 124.042L29.6 106.342L35.5 106.342L35.5 124.042L29.6 124.042ZM38.45 126.992L38.45 100.442L41.4 100.442L41.4 126.992L38.45 126.992ZM32.55 103.392L32.55 100.442L38.45 100.442L38.45 103.392L32.55 103.392ZM32.55 100.442L32.55 94.5424L35.5 94.5424L35.5 100.442L32.55 100.442ZM14.85 97.4924L14.85 94.5424L32.55 94.5424L32.55 97.4924L14.85 97.4924ZM14.85 121.092L14.85 118.142L26.65 118.142L26.65 121.092L14.85 121.092ZM14.85 118.142L14.85 109.292L17.8 109.292L17.8 118.142L14.85 118.142ZM5.99999 88.6309L5.99999 82.7309L23.7 82.7309L23.7 88.6309L5.99999 88.6309ZM17.8 65.0309L17.8 59.1309L35.5 59.1309L35.5 65.0309L17.8 65.0309ZM29.6 88.6309L29.6 65.0309L35.5 65.0309L35.5 88.6309L29.6 88.6309ZM17.8 82.7309L17.8 65.0309L23.7 65.0309L23.7 82.7309L17.8 82.7309ZM5.99999 82.7309L5.99999 59.1309L11.9 59.1309L11.9 82.7309L5.99999 82.7309ZM38.45 85.6809L38.45 53.2309L41.4 53.2309L41.4 85.6809L38.45 85.6809ZM20.75 56.1809L20.75 53.2309L38.45 53.2309L38.45 56.1809L20.75 56.1809ZM8.94999 56.1809L8.94999 53.2309L14.85 53.2309L14.85 56.1809L8.94999 56.1809Z" fill="white"/>
<path fill-rule="evenodd" clip-rule="evenodd" d="M5.86967 21.0273L3 21.5L5.86967 21.9727C6.11632 31.6136 13.8864 39.3837 23.5273 39.6303L24 42.5L24.4727 39.6303C34.1136 39.3837 41.8837 31.6136 42.1303 21.9727L45 21.5L42.1303 21.0273C41.8837 11.3864 34.1136 3.61635 24.4727 3.3697L24 0.5L23.5273 3.3697C13.8864 3.61635 6.11632 11.3864 5.86967 21.0273ZM5.86967 21.0273C5.86566 21.1844 5.86364 21.342 5.86364 21.5C5.86364 21.6581 5.86566 21.8156 5.86967 21.9727L21.0301 24.4699L23.5273 39.6303C23.6844 39.6343 23.8419 39.6364 24 39.6364C24.158 39.6364 24.3156 39.6343 24.4727 39.6303L26.9699 24.4699L42.1303 21.9727C42.1343 21.8156 42.1364 21.658 42.1364 21.5C42.1364 21.3419 42.1343 21.1844 42.1303 21.0273L26.9699 18.5301L24.4727 3.3697C24.3156 3.36569 24.158 3.36364 24 3.36364C23.8419 3.36364 23.6844 3.36569 23.5273 3.3697L21.0301 18.5301L5.86967 21.0273Z" fill="white"/>
</svg>
