<svg width="109" height="41" viewBox="0 0 109 41" fill="none" xmlns="http://www.w3.org/2000/svg">
<g id="rs-logo-js-inverse 1" clip-path="url(#clip0_1_80)">
<g id="Clip path group">
<mask id="mask0_1_80" style="mask-type:luminance" maskUnits="userSpaceOnUse" x="0" y="0" width="109" height="41">
<g id="clip0_279_1365">
<path id="Vector" d="M109 0H0V41H109V0Z" fill="white"/>
</g>
</mask>
<g mask="url(#mask0_1_80)">
<g id="Group">
<g id="Mask group">
<mask id="mask1_1_80" style="mask-type:luminance" maskUnits="userSpaceOnUse" x="0" y="0" width="109" height="41">
<g id="Group_2">
<path id="Vector_2" d="M109 0H0V41H109V0Z" fill="white"/>
</g>
</mask>
<g mask="url(#mask1_1_80)">
<g id="Group_3">
<path id="Vector_3" d="M56.2747 13.58L61.4603 13.2405C61.5787 14.0992 61.7957 14.7383 62.1504 15.1976C62.7223 15.9166 63.5111 16.2761 64.5561 16.2761C65.3251 16.2761 65.9363 16.0964 66.3503 15.7169C66.7448 15.4174 66.9813 14.9381 66.9813 14.4387C66.9813 13.9595 66.7645 13.5002 66.3899 13.2005C65.9954 12.8411 65.0687 12.4816 63.6097 12.1621C61.2238 11.6228 59.5084 10.9039 58.5027 9.98525C57.4972 9.12651 56.9253 7.86837 56.9648 6.53034C56.9648 5.61168 57.2408 4.69302 57.7535 3.93413C58.345 3.07539 59.1534 2.39638 60.1196 2.01694C61.1647 1.55761 62.6237 1.31796 64.4575 1.31796C66.7053 1.31796 68.4207 1.73733 69.6038 2.59608C70.787 3.43487 71.4968 4.79288 71.7137 6.65016L66.5869 6.94972C66.449 6.15088 66.1729 5.57174 65.7195 5.19229C65.266 4.81285 64.6745 4.63311 63.9053 4.63311C63.2745 4.63311 62.8012 4.77291 62.4856 5.03252C62.19 5.27217 61.9927 5.63165 62.0125 6.03106C62.0125 6.33062 62.1702 6.61022 62.4068 6.78995C62.6631 7.0296 63.2745 7.24927 64.2405 7.44899C66.6264 7.96823 68.3222 8.48747 69.3673 9.02666C70.4123 9.56586 71.1615 10.2249 71.615 11.0037C72.0883 11.8026 72.3249 12.7212 72.3051 13.6599C72.3051 14.7782 71.9897 15.8967 71.3587 16.8352C70.7081 17.8138 69.801 18.5727 68.7363 19.032C67.6124 19.5314 66.1926 19.7909 64.4968 19.7909C61.4998 19.7909 59.4295 19.2118 58.2661 18.0335C57.1027 16.8552 56.4126 15.3774 56.2747 13.58ZM1.24222 19.4914V1.63749H10.3322C12.0081 1.63749 13.3095 1.77729 14.1968 2.07685C15.0644 2.35643 15.8334 2.93559 16.3461 3.71446C16.9178 4.57318 17.1939 5.57174 17.1743 6.6102C17.2334 8.3676 16.3461 10.0451 14.8278 10.9239C14.2363 11.2634 13.5856 11.5031 12.9151 11.6228C13.4081 11.7627 13.901 12.0023 14.3349 12.2819C14.67 12.5615 14.9461 12.8811 15.2025 13.2206C15.4982 13.5601 15.7545 13.9395 15.9714 14.3389L18.6136 19.5112H12.4222L9.504 14.0193C9.12931 13.3204 8.81386 12.861 8.51811 12.6414C8.1237 12.3618 7.65051 12.222 7.17728 12.222H6.70405V19.4714H1.24222V19.4914ZM6.70405 8.86693H9.01101C9.504 8.82697 9.97718 8.74705 10.4505 8.62726C10.8053 8.56739 11.1208 8.3676 11.3378 8.06806C11.8701 7.34914 11.7912 6.33062 11.1405 5.71153C10.7856 5.41196 10.0955 5.2522 9.10959 5.2522H6.70405V8.86693ZM0 34.789L5.18578 34.4494C5.30409 35.3082 5.52099 35.9473 5.8759 36.4066C6.428 37.1255 7.23642 37.5049 8.28151 37.5049C9.05044 37.5049 9.66173 37.3252 10.0758 36.9458C10.4702 36.6262 10.7068 36.167 10.7068 35.6676C10.7068 35.1883 10.4899 34.7291 10.1152 34.4296C9.72088 34.07 8.79414 33.7106 7.3153 33.3911C4.92946 32.8518 3.214 32.1329 2.20839 31.2142C1.20278 30.3554 0.63097 29.0972 0.670404 27.7592C0.670404 26.8407 0.946457 25.9219 1.45912 25.1631C2.05065 24.3043 2.85907 23.6252 3.82525 23.2458C4.87029 22.7864 6.32941 22.5468 8.16315 22.5468C10.411 22.5468 12.1264 22.9662 13.3095 23.8249C14.4926 24.6837 15.1827 26.0219 15.3996 27.8792L10.273 28.1786C10.1349 27.3798 9.8589 26.8007 9.40542 26.4211C8.97159 26.0417 8.36039 25.8621 7.59136 25.8819C6.96038 25.8819 6.48715 26.0219 6.17167 26.3013C5.85618 26.541 5.67873 26.9005 5.69845 27.2999C5.69845 27.5995 5.85618 27.8792 6.09281 28.0589C6.34913 28.2986 6.96038 28.5181 7.92657 28.7178C10.3124 29.2371 12.0081 29.7563 13.0532 30.2956C14.0982 30.8347 14.8475 31.4938 15.301 32.2726C15.7742 33.0715 16.0108 33.99 16.0108 34.9088C16.0108 36.0272 15.6756 37.1255 15.0644 38.0641C14.4137 39.0428 13.5067 39.8016 12.4419 40.261C11.318 40.7602 9.89832 41.0198 8.20257 41.0198C5.2055 41.0198 3.13513 40.4407 1.97178 39.2623C0.808427 38.0641 0.157742 36.5864 0 34.789Z" fill="white"/>
<path id="Vector_4" d="M26.224 33.3896L30.9958 34.8475C30.7393 36.0657 30.2071 37.2239 29.4775 38.2424C28.807 39.1412 27.9198 39.8401 26.9143 40.2994C25.8888 40.7588 24.5875 40.9985 23.01 40.9985C21.0974 40.9985 19.52 40.7188 18.3173 40.1597C17.0948 39.6006 16.0496 38.6019 15.1622 37.1839C14.275 35.766 13.8412 33.9487 13.8412 31.732C13.8412 28.7764 14.6102 26.4997 16.1678 24.9219C17.7258 23.3442 19.9143 22.5454 22.7537 22.5454C24.9819 22.5454 26.7169 23.0048 27.9987 23.9034C29.2607 24.8221 30.2071 26.22 30.8381 28.0973L26.027 29.1758C25.9086 28.7564 25.7311 28.337 25.4946 27.9774C25.1987 27.558 24.824 27.2385 24.3707 26.9989C23.917 26.7594 23.4045 26.6594 22.8917 26.6594C21.6496 26.6594 20.703 27.1588 20.0524 28.1771C19.5595 28.9161 19.3032 30.0944 19.3032 31.692C19.3032 33.6692 19.5989 35.0272 20.1905 35.766C20.7818 36.5051 21.6101 36.8645 22.6946 36.8645C23.7397 36.8645 24.5284 36.5648 25.0608 35.9857C25.593 35.3666 25.9874 34.5078 26.224 33.3896ZM37.3647 22.8451H42.8067V29.0958H48.7615V22.8451H54.2431V40.6988H48.7615V33.4695H42.8067V40.6988H37.3647V22.8451Z" fill="white"/>
<path id="Vector_5" d="M53.4955 31.7718C53.4955 28.856 54.304 26.5793 55.901 24.9617C57.4982 23.344 59.7459 22.5252 62.6052 22.5252C65.543 22.5252 67.7908 23.3241 69.388 24.9217C70.9852 26.5193 71.7739 28.7562 71.7739 31.6318C71.7739 33.7288 71.419 35.4264 70.7289 36.7644C70.0585 38.0825 69.0135 39.1608 67.7317 39.8799C66.4106 40.6189 64.7741 40.9983 62.822 40.9983C60.8305 40.9983 59.194 40.6787 57.8926 40.0396C56.5517 39.3605 55.4476 38.3022 54.718 37.004C53.9095 35.6061 53.4955 33.8687 53.4955 31.7718ZM58.9376 31.7916C58.9376 33.5891 59.2728 34.8871 59.9234 35.6861C60.5742 36.4649 61.4813 36.8643 62.6249 36.8643C63.7881 36.8643 64.6952 36.4847 65.3458 35.7059C65.9966 34.9271 66.312 33.5491 66.312 31.5521C66.312 29.8745 65.9768 28.6363 65.3065 27.8774C64.636 27.0984 63.729 26.719 62.5854 26.719C61.5799 26.6792 60.6137 27.1186 59.9432 27.8974C59.2728 28.6763 58.9376 29.9743 58.9376 31.7916ZM77.354 31.7718C77.354 28.856 78.1625 26.5793 79.7597 24.9617C81.3567 23.344 83.6049 22.5252 86.4637 22.5252C89.402 22.5252 91.6693 23.3241 93.2466 24.9217C94.8239 26.5193 95.6325 28.7562 95.6325 31.6318C95.6325 33.7288 95.2774 35.4264 94.5875 36.7644C93.9174 38.0825 92.8722 39.1608 91.59 39.8799C90.269 40.6189 88.6325 40.9983 86.6809 40.9983C84.6892 40.9983 83.0527 40.6787 81.751 40.0396C80.4101 39.3605 79.306 38.3022 78.5766 37.004C77.7681 35.6061 77.354 33.8687 77.354 31.7718ZM82.7962 31.7916C82.7962 33.5891 83.1312 34.8871 83.782 35.6861C84.4327 36.4649 85.34 36.8643 86.4837 36.8643C87.6467 36.8643 88.554 36.4847 89.2047 35.7059C89.8555 34.9271 90.1706 33.5491 90.1706 31.5521C90.1706 29.8745 89.8354 28.6363 89.1647 27.8774C88.4947 27.0984 87.5874 26.719 86.4436 26.719C85.4386 26.6792 84.4528 27.1186 83.8021 27.8974C83.1312 28.6763 82.7962 29.9743 82.7962 31.7916Z" fill="white"/>
<path id="Vector_6" d="M95.0589 22.8456H100.501V36.3058H108.999V40.6995H95.0389V22.8456H95.0589Z" fill="white"/>
<path id="Vector_7" d="M89.0613 21.8141C94.5401 17.6321 96.2296 10.5432 92.8346 5.98043C89.4396 1.41764 82.2464 1.10884 76.7671 5.29073C71.288 9.47266 69.5985 16.5616 72.9934 21.1242C76.3882 25.6872 83.5817 25.9959 89.0613 21.8141Z" fill="black"/>
<g id="Mask group_2">
<mask id="mask2_1_80" style="mask-type:luminance" maskUnits="userSpaceOnUse" x="71" y="2" width="24" height="23">
<g id="Group_4">
<path id="Vector_8" d="M89.0613 21.8141C94.5401 17.6321 96.2296 10.5433 92.8346 5.98043C89.4396 1.41763 82.2464 1.10885 76.7671 5.29073C71.288 9.47259 69.5985 16.5616 72.9934 21.1242C76.3882 25.687 83.5817 25.9959 89.0613 21.8141Z" fill="white"/>
</g>
</mask>
<g mask="url(#mask2_1_80)">
<g id="Group_5">
<path id="Vector_9" d="M59.0206 11.2901L87.3338 -10.3201L106.926 16.0121L78.6126 37.6221L59.0206 11.2901Z" fill="black"/>
<g id="Mask group_3">
<mask id="mask3_1_80" style="mask-type:luminance" maskUnits="userSpaceOnUse" x="59" y="-11" width="48" height="49">
<g id="Group_6">
<path id="Vector_10" d="M59.0206 11.2901L87.3338 -10.3201L106.926 16.0121L78.6126 37.6221L59.0206 11.2901Z" fill="white"/>
</g>
</mask>
<g mask="url(#mask3_1_80)">
<g id="Group_7">
<path id="Vector_11" d="M89.0613 21.8141C94.5402 17.6321 96.2297 10.5433 92.8347 5.98043C89.4395 1.41763 82.2464 1.10885 76.7671 5.29073C71.2882 9.47259 69.5985 16.5616 72.9933 21.1242C76.3882 25.687 83.5816 25.9959 89.0613 21.8141Z" fill="black"/>
<g id="Mask group_4">
<mask id="mask4_1_80" style="mask-type:luminance" maskUnits="userSpaceOnUse" x="71" y="2" width="24" height="23">
<g id="Group_8">
<path id="Vector_12" d="M89.0615 21.8141C94.5403 17.6321 96.2297 10.5433 92.8347 5.98043C89.4397 1.41763 82.2466 1.10885 76.7671 5.29073C71.2882 9.47259 69.5985 16.5616 72.9935 21.1242C76.3883 25.687 83.5818 25.9959 89.0615 21.8141Z" fill="white"/>
</g>
</mask>
<g mask="url(#mask4_1_80)">
<g id="Group_9">
<path id="Vector_13" d="M66.9042 13.0495L86.7299 -2.08203L99.0357 14.4574L79.2098 29.589L66.9042 13.0495Z" fill="black"/>
<g id="Mask group_5">
<mask id="mask5_1_80" style="mask-type:luminance" maskUnits="userSpaceOnUse" x="66" y="-3" width="34" height="33">
<g id="Group_10">
<path id="Vector_14" d="M66.9042 13.0495L86.7299 -2.08203L99.0357 14.4574L79.2098 29.589L66.9042 13.0495Z" fill="white"/>
</g>
</mask>
<g mask="url(#mask5_1_80)">
<g id="Group_11">
<path id="Vector_15" d="M89.061 21.8139C94.5398 17.632 96.2293 10.5432 92.8351 5.9804C89.4399 1.4176 82.2459 1.10882 76.7671 5.2907C71.288 9.47256 69.5985 16.5615 72.9934 21.1242C76.3882 25.687 83.582 25.9959 89.061 21.8139Z" fill="black" stroke="black" stroke-width="4" stroke-miterlimit="10"/>
</g>
</g>
</g>
<g id="Mask group_6">
<mask id="mask6_1_80" style="mask-type:luminance" maskUnits="userSpaceOnUse" x="69" y="-2" width="28" height="31">
<g id="Group_12">
<path id="Vector_16" d="M69.7317 23.0046L76.5999 -1.18781L96.2298 4.49729L89.3611 28.6896L69.7317 23.0046Z" fill="white"/>
</g>
</mask>
<g mask="url(#mask6_1_80)">
<g id="Group_13">
<path id="Vector_17" d="M66.9076 13.0707L86.7536 -2.082L99.0393 14.4364L79.1927 29.589L66.9076 13.0707Z" stroke="black" stroke-width="4" stroke-miterlimit="10"/>
</g>
</g>
</g>
<path id="Vector_18" d="M89.0613 21.8141C94.5403 17.6321 96.2298 10.5433 92.8346 5.98043C89.4396 1.41763 82.2464 1.10885 76.7671 5.29073C71.288 9.47259 69.5985 16.5616 72.9934 21.1242C76.3882 25.687 83.5817 25.9959 89.0613 21.8141Z" stroke="black" stroke-width="4" stroke-miterlimit="10"/>
<path id="Vector_19" d="M66.9042 13.0495L86.7299 -2.08203L99.0357 14.4574L79.2098 29.589L66.9042 13.0495Z" fill="black"/>
<g id="Mask group_7">
<mask id="mask7_1_80" style="mask-type:luminance" maskUnits="userSpaceOnUse" x="66" y="-3" width="34" height="33">
<g id="Group_14">
<path id="Vector_20" d="M66.9042 13.0495L86.7299 -2.08203L99.0357 14.4574L79.2098 29.589L66.9042 13.0495Z" fill="white"/>
</g>
</mask>
<g mask="url(#mask7_1_80)">
<g id="Group_15">
<path id="Vector_21" d="M89.061 21.8139C94.5398 17.632 96.2293 10.5432 92.8351 5.9804C89.4399 1.4176 82.2459 1.10882 76.7671 5.2907C71.288 9.47256 69.5985 16.5615 72.9934 21.1242C76.3882 25.687 83.582 25.9959 89.061 21.8139Z" fill="black" stroke="black" stroke-width="4" stroke-miterlimit="10"/>
</g>
</g>
</g>
<g id="Mask group_8">
<mask id="mask8_1_80" style="mask-type:luminance" maskUnits="userSpaceOnUse" x="69" y="-2" width="28" height="31">
<g id="Group_16">
<path id="Vector_22" d="M69.7317 23.0046L76.5999 -1.18781L96.2298 4.49729L89.3611 28.6896L69.7317 23.0046Z" fill="white"/>
</g>
</mask>
<g mask="url(#mask8_1_80)">
<g id="Group_17">
<path id="Vector_23" d="M66.9076 13.0707L86.7536 -2.082L99.0393 14.4364L79.1927 29.589L66.9076 13.0707Z" stroke="black" stroke-width="4" stroke-miterlimit="10"/>
</g>
</g>
</g>
<path id="Vector_24" d="M59.0206 11.2901L87.3338 -10.3201L106.926 16.0121L78.6126 37.6221L59.0206 11.2901Z" stroke="black" stroke-width="4" stroke-miterlimit="10"/>
</g>
</g>
</g>
<path id="Vector_25" d="M89.0613 21.8141C94.5402 17.6321 96.2297 10.5433 92.8347 5.98043C89.4395 1.41763 82.2464 1.10885 76.7671 5.29073C71.2882 9.47259 69.5985 16.5616 72.9933 21.1242C76.3882 25.687 83.5816 25.9959 89.0613 21.8141Z" fill="black" stroke="white" stroke-width="4" stroke-miterlimit="10"/>
<path id="Vector_26" d="M77.3734 12.2394L79.3451 10.8414L81.7704 14.3363C82.1848 14.8955 82.4998 15.4946 82.7371 16.1537C82.8749 16.653 82.8357 17.192 82.6385 17.6714C82.382 18.2705 81.9676 18.7698 81.4155 19.1293C80.7645 19.5886 80.2124 19.8481 79.7396 19.9281C79.286 20.008 78.8127 19.9281 78.379 19.7284C77.9058 19.4887 77.4918 19.1492 77.1762 18.7099L78.872 17.1122C79.01 17.3319 79.1874 17.5316 79.3846 17.6914C79.5226 17.7911 79.6803 17.8511 79.8578 17.8511C79.9959 17.8511 80.1339 17.7911 80.2325 17.7113C80.4295 17.5914 80.5675 17.3517 80.5482 17.1122C80.489 16.7728 80.351 16.4333 80.1339 16.1737L77.3734 12.2394ZM83.2884 14.4562L85.083 13.0183C85.28 13.2579 85.5365 13.4376 85.8122 13.5375C86.2065 13.6573 86.6209 13.5774 86.9559 13.3178C87.1931 13.1581 87.3904 12.9384 87.4689 12.6588C87.5876 12.2993 87.3904 11.8999 87.0353 11.7801C86.976 11.7601 86.9167 11.7401 86.8575 11.7401C86.6209 11.7202 86.2065 11.82 85.596 12.0796C84.5901 12.499 83.8014 12.6588 83.2099 12.5989C82.6385 12.539 82.1054 12.2394 81.7905 11.7401C81.5532 11.4006 81.4354 11.0012 81.4155 10.6018C81.4155 10.1425 81.534 9.68313 81.7905 9.30368C82.1648 8.76449 82.6184 8.30514 83.1707 7.94569C83.9986 7.36653 84.7279 7.08694 85.3594 7.08694C85.9902 7.08694 86.5817 7.3865 87.1339 8.0056L85.3594 9.42355C85.0045 8.9642 84.3336 8.86435 83.8799 9.22378L83.8215 9.28374C83.6242 9.40353 83.4856 9.5833 83.4071 9.80301C83.3478 9.96274 83.387 10.1425 83.4856 10.2823C83.565 10.3821 83.6828 10.462 83.8215 10.462C83.9785 10.482 84.2551 10.4021 84.6494 10.2223C85.6351 9.80301 86.3845 9.56336 86.8975 9.48345C87.3311 9.40353 87.7846 9.44349 88.1983 9.62324C88.5734 9.78299 88.8883 10.0626 89.1056 10.4021C89.3811 10.8015 89.539 11.2808 89.5591 11.7801C89.5784 12.2993 89.4406 12.7986 89.1648 13.2379C88.8097 13.7772 88.3562 14.2365 87.824 14.596C86.7396 15.3548 85.8523 15.6744 85.1422 15.5546C84.3728 15.4347 83.7421 15.0353 83.2884 14.4562Z" fill="white"/>
</g>
</g>
</g>
</g>
</g>
</g>
</g>
</g>
</g>
</g>
</g>
</g>
</g>
<defs>
<clipPath id="clip0_1_80">
<rect width="109" height="41" fill="white"/>
</clipPath>
</defs>
</svg>
