<svg width="47" height="453" viewBox="0 0 47 453" fill="none" xmlns="http://www.w3.org/2000/svg">
<path d="M5.5 408L5.5 378.5L11.4 378.5L11.4 408L5.5 408ZM11.4 396.2L11.4 390.3L35 390.3L35 396.2L11.4 396.2ZM14.35 405.05L14.35 399.15L17.3 399.15L17.3 405.05L14.35 405.05ZM37.95 393.25L37.95 384.4L40.9 384.4L40.9 393.25L37.95 393.25ZM14.35 387.35L14.35 384.4L37.95 384.4L37.95 387.35L14.35 387.35ZM14.35 384.4L14.35 372.6L17.3 372.6L17.3 384.4L14.35 384.4ZM8.45 375.55L8.45 372.6L14.35 372.6L14.35 375.55L8.45 375.55ZM5.5 366.688L5.5 337.188L11.4 337.188L11.4 366.688L5.5 366.688ZM17.3 366.688L17.3 337.188L23.2 337.188L23.2 366.688L17.3 366.688ZM29.1 366.688L29.1 337.188L35 337.188L35 366.688L29.1 366.688ZM11.4 366.688L11.4 360.788L17.3 360.788L17.3 366.688L11.4 366.688ZM23.2 366.688L23.2 360.788L29.1 360.788L29.1 366.688L23.2 366.688ZM37.95 363.738L37.95 331.288L40.9 331.288L40.9 363.738L37.95 363.738ZM32.05 334.238L32.05 331.288L37.95 331.288L37.95 334.238L32.05 334.238ZM20.25 334.238L20.25 331.288L26.15 331.288L26.15 334.238L20.25 334.238ZM8.45 334.238L8.45 331.288L14.35 331.288L14.35 334.238L8.45 334.238ZM5.5 325.377L5.5 295.877L11.4 295.877L11.4 325.377L5.5 325.377ZM11.4 313.577L11.4 307.677L35 307.677L35 313.577L11.4 313.577ZM14.35 322.427L14.35 316.527L17.3 316.527L17.3 322.427L14.35 322.427ZM37.95 310.627L37.95 301.777L40.9 301.777L40.9 310.627L37.95 310.627ZM14.35 304.727L14.35 301.777L37.95 301.777L37.95 304.727L14.35 304.727ZM14.35 301.777L14.35 289.977L17.3 289.977L17.3 301.777L14.35 301.777ZM8.44999 292.927L8.44999 289.977L14.35 289.977L14.35 292.927L8.44999 292.927ZM5.49999 284.065L5.49999 278.165L35 278.165L35 284.065L5.49999 284.065ZM5.49999 260.465L5.49999 254.565L23.2 254.565L23.2 260.465L5.49999 260.465ZM29.1 260.465L29.1 254.565L35 254.565L35 260.465L29.1 260.465ZM17.3 278.165L17.3 260.465L23.2 260.465L23.2 278.165L17.3 278.165ZM5.49999 278.165L5.49999 260.465L11.4 260.465L11.4 278.165L5.49999 278.165ZM23.2 266.365L23.2 260.465L35 260.465L35 266.365L23.2 266.365ZM37.95 281.115L37.95 272.265L40.9 272.265L40.9 281.115L37.95 281.115ZM26.15 275.215L26.15 272.265L37.95 272.265L37.95 275.215L26.15 275.215ZM26.15 272.265L26.15 269.315L29.1 269.315L29.1 272.265L26.15 272.265ZM8.44999 251.615L8.44999 248.665L26.15 248.665L26.15 251.615L8.44999 251.615ZM32.05 251.615L32.05 248.665L40.9 248.665L40.9 251.615L32.05 251.615ZM37.95 263.415L37.95 251.615L40.9 251.615L40.9 263.415L37.95 263.415ZM5.49999 242.754L5.49999 236.854L35 236.854L35 242.754L5.49999 242.754ZM37.95 239.804L37.95 230.954L40.9 230.954L40.9 239.804L37.95 239.804ZM8.44999 233.904L8.44999 230.954L37.95 230.954L37.95 233.904L8.44999 233.904ZM5.49999 225.065L5.49999 219.165L23.2 219.165L23.2 225.065L5.49999 225.065ZM17.3 201.465L17.3 195.565L35 195.565L35 201.465L17.3 201.465ZM29.1 225.065L29.1 201.465L35 201.465L35 225.065L29.1 225.065ZM17.3 219.165L17.3 201.465L23.2 201.465L23.2 219.165L17.3 219.165ZM5.49999 219.165L5.49999 195.565L11.4 195.565L11.4 219.165L5.49999 219.165ZM37.95 222.115L37.95 189.665L40.9 189.665L40.9 222.115L37.95 222.115ZM20.25 192.615L20.25 189.665L37.95 189.665L37.95 192.615L20.25 192.615ZM8.44999 192.615L8.44999 189.665L14.35 189.665L14.35 192.615L8.44999 192.615ZM5.49999 166.065L5.49999 136.565L11.4 136.565L11.4 166.065L5.49999 166.065ZM29.1 166.065L29.1 136.565L35 136.565L35 166.065L29.1 166.065ZM11.4 166.065L11.4 160.165L29.1 160.165L29.1 166.065L11.4 166.065ZM17.3 154.265L17.3 136.565L23.2 136.565L23.2 154.265L17.3 154.265ZM23.2 142.465L23.2 136.565L29.1 136.565L29.1 142.465L23.2 142.465ZM37.95 163.115L37.95 130.665L40.9 130.665L40.9 163.115L37.95 163.115ZM20.25 133.615L20.25 130.665L37.95 130.665L37.95 133.615L20.25 133.615ZM8.44999 133.615L8.44999 130.665L14.35 130.665L14.35 133.615L8.44999 133.615ZM5.49999 124.754L5.49999 118.854L35 118.854L35 124.754L5.49999 124.754ZM5.49999 118.854L5.49999 95.2539L11.4 95.2539L11.4 118.854L5.49999 118.854ZM11.4 101.154L11.4 95.2539L35 95.2539L35 101.154L11.4 101.154ZM17.3 118.854L17.3 101.154L23.2 101.154L23.2 118.854L17.3 118.854ZM37.95 121.804L37.95 112.954L40.9 112.954L40.9 121.804L37.95 121.804ZM26.15 115.904L26.15 112.954L37.95 112.954L37.95 115.904L26.15 115.904ZM26.15 112.954L26.15 104.104L29.1 104.104L29.1 112.954L26.15 112.954ZM37.95 98.2039L37.95 89.3539L40.9 89.3539L40.9 98.2039L37.95 98.2039ZM8.44999 92.3039L8.44999 89.3539L37.95 89.3539L37.95 92.3039L8.44999 92.3039ZM5.49999 83.4424L5.49999 77.5424L35 77.5424L35 83.4424L5.49999 83.4424ZM5.49999 71.6424L5.49999 65.7424L35 65.7424L35 71.6424L5.49999 71.6424ZM5.49998 59.8424L5.49998 53.9424L35 53.9424L35 59.8424L5.49998 59.8424ZM5.49999 77.5424L5.49999 71.6424L11.4 71.6424L11.4 77.5424L5.49999 77.5424ZM5.49999 65.7424L5.49998 59.8424L11.4 59.8424L11.4 65.7424L5.49999 65.7424ZM37.95 80.4924L37.95 74.5924L40.9 74.5924L40.9 80.4924L37.95 80.4924ZM37.95 68.6924L37.95 62.7924L40.9 62.7924L40.9 68.6924L37.95 68.6924ZM37.95 56.8924L37.95 48.0424L40.9 48.0424L40.9 56.8924L37.95 56.8924ZM8.44998 50.9924L8.44998 48.0424L37.95 48.0424L37.95 50.9924L8.44998 50.9924ZM5.49998 42.1309L5.49998 12.6309L11.4 12.6309L11.4 42.1309L5.49998 42.1309ZM17.3 42.1309L17.3 12.6309L23.2 12.6309L23.2 42.1309L17.3 42.1309ZM29.1 42.1309L29.1 12.6309L35 12.6309L35 42.1309L29.1 42.1309ZM11.4 42.1309L11.4 36.2309L17.3 36.2309L17.3 42.1309L11.4 42.1309ZM23.2 42.1309L23.2 36.2309L29.1 36.2309L29.1 42.1309L23.2 42.1309ZM37.95 39.1809L37.95 6.73086L40.9 6.73086L40.9 39.1809L37.95 39.1809ZM32.05 9.68086L32.05 6.73086L37.95 6.73086L37.95 9.68086L32.05 9.68086ZM20.25 9.68086L20.25 6.73086L26.15 6.73086L26.15 9.68086L20.25 9.68086ZM8.44998 9.68086L8.44998 6.73086L14.35 6.73086L14.35 9.68086L8.44998 9.68086Z" fill="white"/>
<path d="M5 434.5L20.8837 431.884L23.5 416L26.1163 431.884L42 434.5L26.1163 437.116L23.5 453L20.8837 437.116L5 434.5Z" fill="white"/>
</svg>
