<svg width="36" height="36" viewBox="0 0 36 36" fill="none" xmlns="http://www.w3.org/2000/svg">
<g id="volume_off">
<path id="Vector" d="M5.445 5.4451C4.86 6.0301 4.86 6.9751 5.445 7.5601L10.935 13.0501L10.5 13.5001H6C5.175 13.5001 4.5 14.1751 4.5 15.0001V21.0001C4.5 21.8251 5.175 22.5001 6 22.5001H10.5L15.435 27.4351C16.38 28.3801 18 27.7051 18 26.3701V20.1151L24.27 26.3851C23.535 26.9401 22.74 27.4051 21.87 27.7501C21.33 27.9751 21 28.5451 21 29.1301C21 30.2101 22.095 30.9001 23.085 30.4951C24.285 30.0001 25.41 29.3401 26.415 28.5301L28.425 30.5401C29.01 31.1251 29.955 31.1251 30.54 30.5401C31.125 29.9551 31.125 29.0101 30.54 28.4251L7.575 5.4451C6.99 4.8601 6.045 4.8601 5.445 5.4451ZM28.5 18.0001C28.5 19.2301 28.275 20.4151 27.885 21.5101L30.18 23.8051C31.02 22.0501 31.5 20.0851 31.5 18.0001C31.5 12.2551 27.9 7.3351 22.83 5.4001C21.945 5.0551 21 5.7451 21 6.6901V6.9751C21 7.5451 21.375 8.0401 21.915 8.2501C25.77 9.8101 28.5 13.5901 28.5 18.0001ZM15.435 8.5651L15.18 8.8201L18 11.6401V9.6151C18 8.2801 16.38 7.6201 15.435 8.5651ZM24.75 18.0001C24.75 15.3451 23.22 13.0651 21 11.9551V14.6401L24.72 18.3601C24.735 18.2401 24.75 18.1201 24.75 18.0001Z" fill="white"/>
</g>
</svg>
