<svg width="31" height="24" viewBox="0 0 31 24" fill="none" xmlns="http://www.w3.org/2000/svg">
<path d="M11.5728 2.7526L6.78448 7.19989H1.29167C0.578021 7.19989 0 7.73687 0 8.39984V15.5995C0 16.262 0.578021 16.7994 1.29167 16.7994H6.78448L11.5728 21.2467C12.3817 21.9982 13.7778 21.4702 13.7778 20.3983V3.60106C13.7778 2.52811 12.3806 2.00214 11.5728 2.7526ZM24.1299 0.198722C23.5288 -0.16776 22.721 -0.0132676 22.3265 0.546206C21.9314 1.10468 22.0993 1.85514 22.7005 2.22163C26.2671 4.39603 28.3957 8.05135 28.3957 12.0002C28.3957 15.949 26.2671 19.6043 22.7005 21.7787C22.0993 22.1447 21.9314 22.8957 22.3265 23.4536C22.7053 23.9891 23.5067 24.1816 24.1299 23.8011C28.4312 21.1782 31 16.7659 31 11.9997C31 7.23339 28.4312 2.8216 24.1299 0.198722ZM25.8333 11.9997C25.8333 8.82332 24.1079 5.90295 21.2172 4.18803C20.615 3.83105 19.8163 3.99704 19.4347 4.56102C19.0532 5.12499 19.2313 5.87146 19.8335 6.22894C21.9729 7.49838 23.25 9.65528 23.25 11.9997C23.25 14.3441 21.9729 16.501 19.8335 17.7704C19.2313 18.1274 19.0532 18.8738 19.4347 19.4383C19.7851 19.9563 20.5714 20.1953 21.2172 19.8113C24.1079 18.0964 25.8333 15.1765 25.8333 11.9997ZM18.2034 8.15635C17.5801 7.83986 16.7938 8.04835 16.4483 8.62883C16.1044 9.2093 16.332 9.93876 16.9569 10.2592C17.6517 10.6137 18.0833 11.2812 18.0833 11.9997C18.0833 12.7186 17.6517 13.3856 16.9574 13.7401C16.3326 14.0606 16.1049 14.79 16.4488 15.3705C16.7949 15.9535 17.5817 16.1605 18.2039 15.843C19.7232 15.0655 20.6672 13.5931 20.6672 11.9992C20.6672 10.4052 19.7232 8.93331 18.2034 8.15635Z" fill="white"/>
</svg>
